<?xml version="1.0" standalone="no"?>
<svg xmlns="http://www.w3.org/2000/svg" viewBox="0 0 96.375 111.284" width="96.375" height="111.284"><polygon fill="#0019ff" points="96.375,27.821 96.375,83.46300000000001 48.1875,111.284 0,83.46300000000001 0,27.821 48.1875,0"></polygon><path fill="white" fill-rule="nonzero" d="M8.43 7.84L8.51 6.78Q9.13 6.72 9.35 6.72Q9.58 6.72 10.08 6.80L10.08 6.80Q10.05 7.67 10.05 9.04Q10.05 10.42 10.08 10.84L10.08 10.84Q9.66 10.92 9.27 10.92Q8.88 10.92 8.51 10.86L8.51 10.86L8.43 9.88Q6.92 9.83 5.94 9.83Q4.96 9.83 3.44 9.88L3.44 9.88Q3.44 13.55 3.64 16.02L3.64 16.02Q4.62 16.10 6.43 16.10Q8.23 16.10 9.27 15.96L9.27 15.96L9.35 14.06Q9.83 13.97 10.23 13.97Q10.64 13.97 10.92 14.00L10.92 14.00Q10.95 16.18 11.17 18.14L11.17 18.14L11.03 18.28Q9.66 18.14 5.03 18.14Q0.39 18.14 0.14 18.17L0.14 18.17Q0.06 17.75 0.06 17.37Q0.06 17.00 0.11 16.60L0.11 16.60L1.09 16.52Q1.34 12.18 1.34 8.67Q1.34 5.15 1.01 1.88L1.01 1.88L0.06 1.79Q0 1.43 0 1.04Q0 0.64 0.08 0.22L0.08 0.22Q0.78 0.25 5.21 0.25Q9.63 0.25 10.89 0L10.89 0L11.03 0.14Q10.81 2.60 10.78 4.12L10.78 4.12Q10.50 4.14 10.08 4.14Q9.66 4.14 9.21 4.06L9.21 4.06L9.13 2.16Q7.70 2.07 6.16 2.07Q4.62 2.07 3.61 2.16L3.61 2.16Q3.44 3.92 3.44 7.92L3.44 7.92Q3.89 7.95 5.26 7.95Q6.64 7.95 8.43 7.84L8.43 7.84Z" transform="translate(42.602, 23.5)"></path><g fill="white" color="white" transform="translate(29.319575471698112 49.784000000000006) scale(0.754717)"><svg width="50.0" height="53.0" x="0.0" y="0.0" viewBox="0 0 50 53"><path fill="currentColor" fill-rule="evenodd" d="M5.796 11.69c-1.373.039-4.05-.808-2.824-2.667.787-1.178 2.367-.896 3.363-.205.813.598 1.443 1.617 1.998 2.473a.3.3 0 0 0 .148.13l.141.21c-.935.011-1.9.059-2.826.06m30.925-.283c.856-1.482 2.908-3.649 4.904-2.964 2.041.694 2.268 2.216 1.629 3.895 1.48-1.342 3.29-2.274 5.36-2.76.244-.069.47-.025.604.176 1.091 1.55-.04 3.477-1.444 4.423-.72.485-1.53.907-2.384 1.227 1.238.548 1.96 1.668 1.765 3.126-.228 1.539-2.223 2.28-3.535 2.337-1.824.114-3.82-.399-5.074-1.824a.414.414 0 0 1-.084-.196 33.003 33.003 0 0 0-2.178 1.562 8.213 8.213 0 0 1 1.008-.165c1.425-.113 4.162-.285 4.162 1.825 0 1.939-2.452 3.307-4.105 3.592-2.095.39-4.063.232-5.943-.602a37.852 37.852 0 0 0-3.077 4.104c1.289-1.13 2.844-1.997 4.401-2.362 1.597-.341 4.106-.341 4.79 1.597.684 1.996-.741 3.82-2.68 4.447-1.425.457-2.965.798-4.447.513-1.513-.341-2.693-.72-4.145-.61a48.28 48.28 0 0 0-2.144 4.774c1.253-1.322 2.925-2.258 4.727-2.516 1.71-.227 3.99-.057 4.732 1.825 2.053 5.302-6.899 4.39-9.407 3.706-.172-.057-.172-.4 0-.342 1.653.228 3.42.285 5.074.114 1.14-.114 4.675-1.14 3.25-3.022-2.338-3.193-7.07.172-8.838 2.167a.308.308 0 0 1-.286.113c-1.39 4.077-2.325 8.378-2.884 12.72 0 .115-.171.115-.171 0 .252-6.234 1.567-12.726 4.09-18.584-2.106-3.21-5.05-11.192.813-12.432 3.286-.687 2.628 4.024 1.614 7.656a36.965 36.965 0 0 1 2.4-3.564c-2.363-4.412-.706-9.716 3.512-12.36.171-.113.514-.056.685.114 2.022 2.511 1.51 5.194.127 7.58a29.494 29.494 0 0 1 3.4-2.584c1.147-.97 2.332-1.856 3.257-3 .57-.684 1.14-1.482 1.54-2.28.342-.684 1.425-3.478-.741-3.307-3.82.342-5.018 5.36-4.334 8.381 0 .114-.17.228-.17.114-1.027-2.11-.97-4.561.227-6.614zm-19.556 27.31c-.114-.398.513-.57.627-.17 1.426 4.276 2.053 9.236 1.255 13.684-.57-4.562-1.027-9.01-1.882-13.513zm-9.864-5.245c.628-2.451 3.478-2.166 5.075-.969 2.11 1.54 3.592 3.82 3.706 6.442 0 .343-.57.4-.627.058-.4-1.939-1.14-3.82-2.794-5.074-.855-.628-3.136-2.338-3.991-.4-.513 1.14-.171 2.395.513 3.364 1.938 2.737 5.36 3.307 8.267 4.39.171.058.171.286-.057.343-4.333.399-11.574-2.566-10.092-8.154zm10.434-4.162c1.768-.912 4.048.627 4.619 2.338.912 2.68.228 5.93-.457 8.61-.026-.22-.043-.443-.057-.664-.123.22-.453.343-.684.15-1.767-1.54-4.618-3.25-5.131-5.758-.4-1.825-.114-3.764 1.71-4.676zm1.825 1.255c-1.426-.343-2.395.513-2.395 1.824 0 3.124 3.168 4.438 4.657 6.816-.06-1.604.102-3.23-.039-4.82-.114-1.426-.513-3.421-2.223-3.82zm7.184-5.53c0-.628-.114-5.076-2.737-2.11-2.697 3.027-.826 7.167.538 10.425a43.06 43.06 0 0 1 1.107-2.32c.318-.978.563-1.963.75-2.974.17-1.026.342-1.995.342-3.022zm7.64 2.793a7.788 7.788 0 0 0-3.193 1.026c-1.492.77-2.659 1.826-3.81 2.959 1.812-.124 4.285.718 5.577.405a6.214 6.214 0 0 0 2.053-.684c1.71-.798 1.97-3.537-.627-3.706zM.913.369c1.026-.57 2.566-.513 3.42.4C5.589 2.023 5.532 3.79 5.418 5.444c-.057.114-.17.114-.17.057-.172-1.254-.343-3.022-1.312-3.934C3.308.94 1.255.37 1.027 1.68.742 3.163 2.623 4.076 3.65 4.703c.822.457 1.683.905 2.549 1.333a4.226 4.226 0 0 1 .133-2.21C6.73 2.57 8.385 1.658 9.696 2.114c4.618 1.653 2.85 8.153 1.71 11.63 0 .115-.17.058-.17 0 .398-2.337.911-5.416.227-7.754-.285-1.025-.855-2.45-2.11-2.622-1.653.342-2.28 1.197-1.938 2.566.4 1.14 1.026 2.052 1.71 3.022.298.395-.178.832-.57.68 1.69 2.396 3.11 5.033 4.334 7.587.231.485.459 1 .678 1.538-.514-1.867-.32-3.982.52-5.757.683-1.426 1.823-3.364 3.648-2.737 1.483.57 1.311 2.965 1.026 4.105-.627 2.736-2.052 4.904-3.706 7.07-.057.057-.113 0-.057-.057 1.255-2.451 3.935-6.443 2.851-9.351-.798-2.166-2.395.4-2.622.913-.4.684-.742 1.482-.855 2.28-.23 1.426-.115 2.794.17 4.22.099.393-.355.53-.59.304 1.026 2.764 1.797 5.985 1.791 8.879 1.655-1.466 4.158-3 4.102-5.535 0-.455-.115-2.794-1.54-1.824-.741.456-1.311 1.14-1.54 1.996-.284 1.025-.341 2.052-.398 3.079-.057.227-.343.227-.343 0-.057-1.654-.114-3.764 1.14-5.075.685-.742 2.11-1.825 2.91-.627 2.28 3.421-1.028 7.07-3.878 8.723-.162.116-.34.078-.47-.027-.021.42-.054.834-.113 1.234l-.081-1.565c0 .057-.037-.31-.06-.488-.024-.195-.059-.385-.086-.578-.107.054-.246.025-.33-.115-1.084-1.653-2.338-2.965-3.764-4.276-1.026-.912-3.364-1.996-3.706.17-.228 1.369.456 2.624 1.426 3.479 1.368 1.254 2.736 1.596 4.333 2.394.684.342 1.204.585 1.598 1.144.059.077.006.115-.053.082-.753-.647-3.598-.827-4.624-1.34-1.14-.57-1.996-1.31-2.794-2.338-1.026-1.31-1.596-3.478-.399-4.903 2.768-3.238 6.778 1.608 8.134 4.548-.583-3.244-1.638-6.248-3.03-9.098.075.295.143.594.199.9.056.229-.343.458-.457.172-.513-1.083-1.026-2.452-1.881-3.307-.513-.513-1.255-1.083-2.053-1.026-.798.057-2.223.799-1.824 1.881.456 1.312 2.052 2.167 3.193 2.794a62.838 62.838 0 0 0 2.737 1.482c.062.033.014.07-.058.058-2.11-.343-9.18-3.022-6.328-6.215a3.132 3.132 0 0 1 4.048-.513c.253.175.476.366.684.564a54.224 54.224 0 0 0-1.509-2.396c-1.911.33-4.185.983-6.029-.128-1.108-.68-1.733-2.158-.94-3.28.765-1.082 2.216-1.75 3.5-1.36-.228-.291-.46-.581-.693-.871-1.54-.704-3.087-1.55-4.138-2.77C-.17 2.765-.342 1.055.913.37zm32.559 14.917c-.628-1.654-1.198-.742-1.996.113a9.937 9.937 0 0 0-2.143 9.813c.4-.519.812-1.03 1.241-1.523 1.07-1.459 2.338-3.08 2.84-4.811.343-1.14.514-2.452.058-3.592zm6.67 7.07c.229-1.654-3.99-.457-4.504-.286-1.166.432-2.104.996-3.06 1.69-.31.324-.611.654-.906.99 1.323.398 2.764.538 4.137.228 1.312-.285 4.105-1.027 4.333-2.623zm3.97-6.493a34.088 34.088 0 0 0-4.98 2.55c1.711 1.29 4.288 2.436 6.313 1.03 1.847-1.304.433-3.431-1.333-3.58zm4.519-4.887c-.116-.894-3.618.98-4.075 1.238-.683.404-1.307.844-1.892 1.34-.283.484-.617.967-.982 1.436 1.44-.177 2.817-.327 4.145-.959 1.027-.497 3.046-1.613 2.804-3.055z"></path></svg></g></svg>